<?xml version="1.0" standalone="no"?>
<!DOCTYPE svg PUBLIC "-//W3C//DTD SVG 20010904//EN"
 "http://www.w3.org/TR/2001/REC-SVG-20010904/DTD/svg10.dtd">
<svg version="1.0" xmlns="http://www.w3.org/2000/svg"
 width="184.000000pt" height="184.000000pt" viewBox="0 0 184.000000 184.000000"
 preserveAspectRatio="xMidYMid meet">
<metadata>
Created by potrace 1.11, written by Peter Selinger 2001-2013
</metadata>
<g transform="translate(0.000000,184.000000) scale(0.100000,-0.100000)"
fill="#000000" stroke="none">
<path d="M0 920 l0 -920 920 0 920 0 0 920 0 920 -920 0 -920 0 0 -920z m1370
352 c-33 -55 -60 -102 -60 -106 0 -3 46 -7 103 -9 l102 -3 -108 -1 -109 -1
-62 -103 c-106 -175 -176 -283 -176 -272 0 6 40 76 89 155 49 78 130 212 181
296 51 84 94 151 97 149 2 -3 -23 -50 -57 -105z m-817 -7 l58 -105 207 -3 207
-2 -217 -3 -217 -2 -17 33 c-9 17 -36 64 -60 103 -48 76 -50 84 -31 84 6 -1
38 -48 70 -105z m-16 -112 c-20 -2 -52 -2 -70 0 -17 2 0 4 38 4 39 0 53 -2 32
-4z m998 -106 c-31 -45 -144 -211 -252 -369 -108 -159 -199 -288 -202 -288
-12 1 -361 571 -355 581 6 11 14 -2 224 -339 69 -111 128 -201 132 -199 7 2
148 205 330 474 147 219 171 250 176 234 2 -7 -21 -49 -53 -94z m-1141 44 c59
-96 69 -114 57 -106 -9 5 -12 3 -9 -6 3 -8 10 -13 16 -12 6 2 21 -14 33 -35
13 -20 78 -126 146 -235 68 -109 123 -200 123 -203 0 -3 -5 -2 -12 2 -7 4 -8
3 -4 -5 4 -6 11 -9 16 -6 5 3 16 -8 25 -25 8 -16 19 -30 24 -30 4 0 34 39 65
86 32 47 60 84 63 81 5 -5 -128 -206 -137 -207 -10 0 -40 62 -34 71 3 5 1 8
-4 7 -14 -4 -96 122 -94 145 0 9 -3 15 -7 13 -8 -5 -24 19 -163 244 -88 143
-83 134 -68 125 8 -5 11 -3 8 6 -3 8 -10 14 -17 14 -6 0 -22 16 -34 34 -12 19
-16 32 -9 27 15 -9 15 -1 2 25 -6 10 -16 19 -22 19 -6 0 -5 -6 3 -17 9 -11 10
-14 2 -9 -7 4 -17 15 -23 26 -19 36 30 9 54 -29z"/>
<path d="M391 1065 c0 -5 6 -19 14 -29 8 -11 15 -15 15 -10 0 6 -7 19 -15 30
-8 10 -14 15 -14 9z"/>
<path d="M460 958 c0 -10 90 -158 97 -158 2 0 -6 17 -18 38 -59 96 -79 126
-79 120z"/>
<path d="M582 754 c13 -22 31 -52 41 -65 10 -13 8 -6 -5 17 -13 22 -31 52 -41
65 -10 13 -8 6 5 -17z"/>
<path d="M646 647 c3 -10 9 -15 12 -12 3 3 0 11 -7 18 -10 9 -11 8 -5 -6z"/>
<path d="M677 600 c22 -39 55 -90 59 -90 7 0 -24 53 -46 80 -12 14 -18 18 -13
10z"/>
</g>
</svg>
